<svg fill="none" height="142" viewBox="0 0 650 142" width="650" xmlns="http://www.w3.org/2000/svg"><path d="m0 101.991c1.88204 2.583 2.93247 4.027 4.02668 5.515-4.333066-28.712 7.83452-50.9026 27.70542-72.1302 0 11.7737 3.1513 21.6216-1.5757 32.0384-5.471 11.9926-7.0029 24.7291-2.9762 37.8598 5.6023 18.339 17.0696 28.099 36.2839 29.543 11.7299.876 23.1535-.744 34.3144-4.508 1.0505-.35 2.3195-1.313 3.1955.044 1.006 1.488-.351 2.232-1.401 2.582-23.81 7.003-47.6637 13.525-72.3491 4.202-10.8545-4.114-19.65198-10.679-24.7291-21.49-1.925813-4.027-2.363495-8.141-2.4948-13.656z" fill="#d21f1c"/><path d="m113.229 6.22604c-14.5751-4.37683-28.2746 3.19509-42.9807 2.53856 14.0496-10.41687 33.0887-11.90499 42.9807-2.53856z" fill="#d21f1c"/><path d="m151.789 103.611c4.245-2.845 8.447-5.734 12.692-8.5789.263.3502.526.6565.788 1.0067-4.289 3.02-8.535 6.0402-12.824 9.1042-.219-.526-.437-1.007-.656-1.532z" fill="#d21f1c"/><path d="m118.962 122.081c7.135-3.502 14.269-7.003 21.447-10.548.131.262.263.569.394.831-7.222 3.545-14.4 7.091-21.622 10.636-.087-.306-.131-.613-.219-.919z" fill="#d21f1c"/><path d="m215.865 41.941c-2.713 2.3197-5.12 3.9829-9.366 3.7203-7.747-.5252-17.376 7.3531-20.09 15.1001 2.364-.1751 4.771-.7003 7.091-.4815 2.407.2626 4.727 1.0067 3.589 4.5957-1.444 4.7707.963 6.8279 5.558 6.5652 3.94-.2188 4.334 2.276 4.071 5.0772-.219 2.0571-1.007 4.0704-2.145 8.2284 9.673-6.5215 18.558-11.1609 18.821-22.8908.043-1.4444.831-2.5824 2.144-3.5015 6.347-4.3331 11.949-10.3293 17.157-15.9754 7.31-8.0097 14.575-16.5883 18.339-26.8738-14.75 3.8954-27.355 11.2922-45.169 26.4361zm24.161-4.2456c-2.276 0-4.071-1.8382-4.071-4.0704 0-2.276 1.838-4.0705 4.071-4.0705 2.276 0 4.07 1.8383 4.07 4.0705s-1.838 4.0704-4.07 4.0704z" fill="#d21f1c"/><path d="m69.8105 18.3937h-26.4799v24.0726h26.4799z" fill="#000"/><path d="m69.8105 49.9068h-26.4799v58.9122h26.4799z" fill="#d21f1c"/><path d="m163.475 18.3937h-87.2305v24.0726h7.7908v66.3527h28.9747v-66.3527h34.446z" fill="#000"/><path d="m295.257 95.0486c0 1.7448-1.374 3.1196-3.119 3.1196-1.851 0-3.225-1.3748-3.225-3.1196v-75.7671c0-1.6391 1.374-3.0138 3.383-3.0138 1.64 0 3.014 1.3747 3.014 3.0138v75.7671z" fill="#d21f1c"/><path d="m346.386 98.2211c-1.745 0-3.12-1.3747-3.12-3.1195v-72.5948h-27.124c-1.639 0-2.908-1.269-2.908-3.1195 0-1.6391 1.269-2.9081 2.908-2.9081h60.646c1.639 0 2.908 1.269 2.908 3.1195 0 1.6391-1.269 2.9081-2.908 2.9081h-27.124v72.5419c0 1.7448-1.428 3.1724-3.278 3.1724z" fill="#d21f1c"/><path d="m388.843 85.2144c.581-.5816 1.374-.9517 2.22-.9517.582 0 1.269.2114 1.851.6873 5.657 4.3885 12.742 7.6666 19.034 7.6666 9.993 0 19.246-5.2344 19.246-15.1746 0-22.9469-41.981-14.593-41.981-41.7169 0-11.3677 8.671-20.3032 23.74-20.3032 7.878 0 14.117 2.2207 19.722 5.9218.687.4758 1.163 1.3747 1.163 2.3264 0 .5816-.212 1.1632-.582 1.7448-.581.7931-1.533 1.2689-2.432 1.2689-.582 0-1.163-.1057-1.745-.4758-5.076-3.1195-9.411-4.7586-15.862-4.7586-10.68 0-17.289 5.6574-17.289 14.2757 0 22.7355 41.981 13.4298 41.981 41.6112 0 13.0068-11.474 21.3078-25.855 21.3078-8.354 0-17.131-4.0712-23.158-9.2528-.582-.4758-.793-1.2689-.793-1.9562-.106-.846.158-1.6391.74-2.2207z" fill="#0e0e0e"/><path d="m465.192 70.0397-11.368 26.4366c-.476 1.0575-1.533 1.7448-2.644 1.7448-1.745 0-3.014-1.3747-3.014-3.0138 0-.3701.106-.793.212-1.1632l33.151-75.7143c.476-1.0574 1.534-2.3264 3.226-2.3264 1.85 0 2.908 1.269 3.383 2.3264l33.046 75.5557c.106.3701.212.7931.212 1.1632 0 1.6391-1.534 3.1195-3.12 3.1195-1.269 0-2.326-.6873-2.802-1.7448l-11.368-26.4365h-38.914zm2.59-6.0275h33.839l-16.919-39.179z" fill="#0e0e0e"/><path d="m584.843 91.6119c1.639 0 2.908 1.269 2.908 3.1195 0 1.6391-1.269 2.908-2.908 2.908h-42.88c-1.85 0-3.384-1.4804-3.384-3.3839v-74.974c0-1.6391 1.375-3.0138 3.384-3.0138 1.639 0 3.014 1.3747 3.014 3.0138v72.3304z" fill="#0e0e0e"/><path d="m646.863 91.6119c1.64 0 2.909 1.269 2.909 3.1195 0 1.6391-1.269 2.9081-2.909 2.9081h-39.76c-1.851 0-3.384-1.4805-3.384-3.3839v-74.3925c0-1.8506 1.533-3.3839 3.384-3.3839h38.597c1.639 0 2.908 1.269 2.908 3.1195 0 1.6391-1.269 2.9081-2.908 2.9081h-35.583v30.9307h32.094c1.639 0 2.908 1.269 2.908 3.1196 0 1.639-1.269 2.908-2.908 2.908h-32.094v32.094h36.746z" fill="#0e0e0e"/><g fill="#000"><path d="m305.197 138.034c0 .371-.317.688-.687.688-.423 0-.687-.317-.687-.688v-15.861h-11.051v15.861c0 .371-.317.688-.687.688s-.687-.317-.687-.688v-16.443c0-.423.317-.74.74-.74h12.372c.423 0 .74.317.74.74v16.443z"/><path d="m311.066 138.087v-16.496c0-.423.318-.74.741-.74 1.163 0 2.802-.053 3.595-.053 4.97 0 6.345 2.696 6.345 5.34 0 2.749-1.957 5.446-6.028 5.446h-.74c-.37 0-.635-.264-.635-.635 0-.422.265-.687.635-.687h.74c2.802 0 4.6-1.692 4.6-4.124 0-2.326-1.375-4.018-4.706-4.018-.793 0-2.22 0-3.066.053v15.914c0 .37-.317.688-.688.688-.475 0-.793-.318-.793-.688z"/><path d="m333.273 120.586c5.076 0 8.936 3.807 8.936 9.147 0 5.235-3.86 9.147-8.936 9.147s-8.936-3.806-8.936-9.147c0-5.181 3.807-9.147 8.936-9.147zm0 16.92c4.336 0 7.455-3.384 7.455-7.825 0-4.495-3.278-7.826-7.455-7.826-4.23 0-7.455 3.278-7.455 7.826 0 4.494 3.225 7.825 7.455 7.825z"/><path d="m344.535 141.365c0 .371-.264.635-.634.635-.371 0-.635-.264-.635-.635v-3.331c0-.423.317-.74.74-.74h1.163c.741-.951 2.644-4.811 3.067-12.901l.159-2.802c0-.423.37-.74.74-.74h8.513c.423 0 .74.317.74.74v15.703h1.692c.423 0 .74.317.74.74v3.331c0 .371-.264.635-.687.635-.371 0-.635-.264-.635-.635v-2.749h-14.963zm12.425-19.192h-7.243l-.212 3.278c-.476 7.349-2.168 11.103-2.855 11.896h10.31z"/><path d="m366.266 132.589-2.485 5.816c-.106.211-.317.37-.582.37-.37 0-.634-.317-.634-.635 0-.053 0-.158.053-.264l7.243-16.602c.106-.212.317-.529.688-.529.422 0 .634.264.74.529l7.243 16.549c0 .053.053.159.053.264 0 .371-.317.688-.687.688-.264 0-.529-.159-.635-.37l-2.485-5.816zm.529-1.322h7.402l-3.701-8.566z"/><path d="m391.751 137.294c.37 0 .634.265.634.688 0 .37-.264.634-.634.634h-8.724c-.423 0-.741-.317-.741-.74v-16.285c0-.423.318-.74.741-.74h8.459c.37 0 .635.264.635.687 0 .37-.265.635-.635.635h-7.825v6.767h7.032c.37 0 .635.265.635.688 0 .37-.265.634-.635.634h-7.032v7.032z"/><path d="m398.518 138.035c0 .37-.317.687-.687.687-.423 0-.687-.317-.687-.687v-16.55c0-.37.317-.74.687-.74.423 0 .635.317.952.687l6.926 9.095 6.609-9.042c.318-.423.635-.74 1.005-.74.317 0 .634.264.634.687v16.603c0 .37-.317.687-.687.687s-.687-.317-.687-.687v-14.646l-6.451 8.671c-.106.159-.264.211-.476.211-.158 0-.317-.052-.423-.211l-6.715-8.671z"/><path d="m432.304 132.959 5.235-11.738c.105-.212.317-.423.581-.423.423 0 .688.264.688.634 0 .106 0 .212-.053.318l-5.816 12.901c-1.216 2.696-2.38 4.124-4.124 4.124-.476 0-1.005-.053-1.428-.265-.211-.105-.37-.317-.37-.634 0-.053 0-.159.053-.264.106-.265.317-.371.529-.371.105 0 .158 0 .264.053.317.106.582.159.899.159 1.163 0 1.956-1.163 2.538-2.379l.317-.688-7.614-12.583c-.053-.106-.106-.212-.106-.371 0-.317.265-.687.635-.687.264 0 .476.106.634.37z"/><path d="m443.936 138.035c0 .37-.317.687-.687.687-.423 0-.687-.317-.687-.687v-16.55c0-.37.317-.74.687-.74.423 0 .635.317.952.687l6.926 9.095 6.609-9.042c.318-.423.635-.74 1.005-.74.317 0 .634.264.634.687v16.603c0 .37-.317.687-.687.687s-.687-.317-.687-.687v-14.646l-6.451 8.671c-.106.159-.264.211-.476.211-.158 0-.317-.052-.423-.211l-6.715-8.671z"/><path d="m479.097 138.035c0 .37-.317.687-.687.687-.423 0-.688-.317-.688-.687v-7.826h-11.103v7.826c0 .37-.317.687-.687.687s-.688-.317-.688-.687v-16.603c0-.37.318-.687.741-.687.37 0 .634.317.634.687v7.455h11.103v-7.455c0-.37.318-.687.741-.687.37 0 .634.317.634.687z"/><path d="m484.966 121.432c0-.37.317-.687.687-.687s.688.317.688.687v6.398c1.11-.053 2.009-.106 2.696-.106 4.494 0 6.609 2.009 6.609 5.288 0 3.701-2.643 5.657-6.926 5.657-1.11 0-2.115 0-3.014-.053-.423 0-.74-.317-.74-.74zm1.375 15.809c.793 0 1.533.053 2.538.053 3.436 0 5.287-1.48 5.287-4.335 0-2.538-1.798-3.966-5.182-3.966-.687 0-1.533 0-2.59.159v8.089zm14.011.794c0 .37-.317.687-.687.687-.423 0-.688-.317-.688-.687v-16.603c0-.37.318-.687.741-.687.37 0 .634.317.634.687z"/><path d="m515.685 137.294c.37 0 .635.265.635.688 0 .37-.265.634-.635.634h-8.724c-.423 0-.74-.317-.74-.74v-16.285c0-.423.317-.74.74-.74h8.46c.37 0 .634.264.634.687 0 .37-.264.635-.634.635h-7.825v6.767h7.032c.37 0 .634.265.634.688 0 .37-.264.634-.634.634h-7.032v7.032z"/><path d="m527.212 138.087v-16.496c0-.423.317-.74.74-.74 1.163 0 2.802-.053 3.595-.053 4.97 0 6.345 2.696 6.345 5.34 0 2.749-1.956 5.446-6.028 5.446h-.74c-.37 0-.634-.264-.634-.635 0-.422.264-.687.634-.687h.74c2.803 0 4.6-1.692 4.6-4.124 0-2.326-1.374-4.018-4.705-4.018-.793 0-2.221 0-3.067.053v15.914c0 .37-.317.688-.687.688-.529 0-.793-.318-.793-.688z"/><path d="m551.692 137.294c.37 0 .634.265.634.688 0 .37-.264.634-.634.634h-8.724c-.423 0-.74-.317-.74-.74v-16.285c0-.423.317-.74.74-.74h8.459c.371 0 .635.264.635.687 0 .37-.264.635-.635.635h-7.825v6.767h7.085c.37 0 .635.265.635.688 0 .37-.265.634-.635.634h-7.032v7.032z"/><path d="m576.648 137.876c0 .423-.317.74-.74.74h-18.136c-.423 0-.74-.317-.74-.74v-16.444c0-.37.317-.687.74-.687.37 0 .688.317.688.687v15.862h7.719v-15.862c0-.37.317-.687.74-.687.37 0 .635.317.635.687v15.862h7.719v-15.862c0-.37.317-.687.74-.687.371 0 .635.317.635.687z"/><path d="m591.928 137.294c.37 0 .635.265.635.688 0 .37-.265.634-.635.634h-8.724c-.423 0-.74-.317-.74-.74v-16.285c0-.423.317-.74.74-.74h8.46c.37 0 .634.264.634.687 0 .37-.264.635-.634.635h-7.825v6.767h7.032c.37 0 .634.265.634.688 0 .37-.264.634-.634.634h-7.032v7.032z"/><path d="m611.227 138.035c0 .37-.317.687-.687.687-.423 0-.688-.317-.688-.687v-7.826h-11.103v7.826c0 .37-.317.687-.687.687-.371 0-.688-.317-.688-.687v-16.603c0-.37.317-.687.74-.687.371 0 .688.317.688.687v7.455h11.103v-7.455c0-.37.317-.687.74-.687.37 0 .688.317.688.687v16.603z"/><path d="m630.949 138.722c-.371 0-.688-.317-.688-.688v-14.857l-11.738 15.122c-.158.211-.475.476-.846.476-.475 0-.634-.37-.634-.741v-16.549c0-.37.317-.687.74-.687.37 0 .688.317.688.687v14.91l11.579-14.91c.264-.317.528-.634.951-.634s.688.317.688.74v16.549c-.053.317-.317.582-.74.582z"/><path d="m645.859 138.087v-15.914c-.74 0-1.904-.053-2.908-.053-3.331 0-4.917 1.745-4.917 3.912 0 2.538 1.797 4.019 5.128 4.124.476 0 .688.318.688.635 0 .211 0 .37-.37.74l-6.451 6.874c-.211.211-.423.423-.74.423-.423 0-.635-.265-.635-.635 0-.158.106-.37.265-.581l6.133-6.398c-3.384-.264-5.446-2.168-5.446-5.235 0-2.908 2.115-5.234 6.662-5.234 1.005 0 2.274.053 3.278.053.423 0 .74.37.74.74v16.497c0 .37-.317.687-.687.687-.423.053-.74-.264-.74-.635z"/></g></svg>